v -0.500000 -0.500000 -0.500000
v 0.500000 -0.500000 -0.500000
v 0.500000 -0.500000 0.500000
v -0.500000 -0.500000 0.500000
v -0.500000 0.500000 -0.500000
v 0.500000 0.500000 -0.500000
v -0.500000 0.500000 0.500000
v 0.500000 0.500000 0.500000
v -0.200000 0.704877 -0.300000
v 0.200000 0.704877 -0.300000
v 0.200000 0.704877 0.300000
v -0.200000 0.704877 0.300000
v 0.060000 0.500000 -0.060000
v -0.060000 0.500000 0.060000
v 0.060000 0.500000 0.060000
v -0.060000 0.500000 -0.060000
vn -0.0000 1.0000 -0.0000
vn -0.0000 -0.0000 1.0000
vn 1.0000 -0.0000 -0.0000
vn -1.0000 -0.0000 -0.0000
vn -0.0000 -1.0000 -0.0000
vt 0.375000 0.304087
vt 0.125000 0.304087
vt 0.375000 0.695913
vt 0.125000 0.695913
vt 0.875000 0.304087
vt 0.625000 0.304087
vt 0.875000 0.695913
vt 0.625000 0.695913
vt 0.765000 0.523510
vt 0.735000 0.523510
vt 0.735000 0.476490
vt 0.765000 0.476490
vt 0.250000 0.100000
s 0
usemtl orange
f 5/5/2 1/2/2 6/6/2
f 6/6/2 1/2/2 2/1/2
usemtl white
f 2/1/1 1/2/1 3/3/1
f 3/3/1 1/2/1 4/4/1
f 8/8/5 14/9/5 15/10/5
f 5/5/5 13/11/5 16/12/5
f 13/11/5 6/6/5 8/8/5
f 8/8/5 7/7/5 14/9/5
f 15/10/5 13/11/5 8/8/5
f 14/9/5 7/7/5 5/5/5
f 5/5/5 6/6/5 13/11/5
f 16/12/5 14/9/5 5/5/5
usemtl red
f 4/4/3 1/2/3 7/7/3
f 7/7/3 1/2/3 5/5/3
usemtl pink
f 6/6/4 2/1/4 3/3/4
f 8/8/4 6/6/4 3/3/4
usemtl light
f 9/13/5 10/13/5 11/13/5
f 11/13/5 12/13/5 9/13/5
o pCone1
v 0.073673 -0.313192 -0.118352
v 0.107128 -0.342401 -0.112156
v 0.085386 -0.336350 -0.128500
v 0.136590 -0.367440 -0.089444
v 0.120658 -0.366761 -0.112295
v 0.157574 -0.384497 -0.053673
v 0.148937 -0.390360 -0.079510
v 0.166884 -0.390976 -0.010290
v 0.165920 -0.403554 -0.035136
v 0.163104 -0.385889 0.034102
v 0.169020 -0.404334 0.014071
v 0.146809 -0.370012 0.072744
v 0.157767 -0.392582 0.060620
v 0.120480 -0.345761 0.099753
v 0.133871 -0.370086 0.097423
v 0.088125 -0.316829 0.111017
v 0.100973 -0.340272 0.118879
v 0.054670 -0.287620 0.104821
v 0.064080 -0.307678 0.121720
v 0.025208 -0.262581 0.082109
v 0.028809 -0.277267 0.105515
v 0.004224 -0.245524 0.046338
v 0.000529 -0.253668 0.072730
v -0.005086 -0.239045 0.002955
v -0.016454 -0.240474 0.028356
v -0.001306 -0.244132 -0.041437
v -0.019554 -0.239694 -0.020851
v 0.014989 -0.260009 -0.080079
v -0.008300 -0.251446 -0.067400
v 0.041318 -0.284260 -0.107088
v 0.015595 -0.273942 -0.104203
v 0.048493 -0.303756 -0.125659
v -0.002340 -0.334267 -0.193304
v 0.031797 -0.353869 -0.195473
v 0.055452 -0.385325 -0.197755
v 0.022062 -0.364392 -0.201165
v 0.088234 -0.403143 -0.185021
v 0.110704 -0.432964 -0.172370
v 0.080282 -0.415223 -0.190383
v 0.137935 -0.445382 -0.146707
v 0.155004 -0.469932 -0.121012
v 0.131554 -0.458797 -0.150859
v -0.049169 -0.482544 -0.034968
v 0.173333 -0.474157 -0.086364
v 0.181607 -0.490600 -0.051501
v 0.168070 -0.488480 -0.088608
v 0.189040 -0.485085 -0.013178
v 0.186464 -0.491822 0.025581
v 0.184273 -0.499754 -0.013110
v -0.031703 -0.497119 -0.014720
v 0.182663 -0.476505 0.061709
v 0.168835 -0.473412 0.098499
v 0.177695 -0.490902 0.064143
v 0.155174 -0.449721 0.126896
v 0.131404 -0.438173 0.156151
v 0.149337 -0.463272 0.131389
v -0.029788 -0.497600 0.015671
v 0.110758 -0.408811 0.172458
v 0.079869 -0.391469 0.189762
v 0.103518 -0.421070 0.178391
v 0.056177 -0.360004 0.191460
v 0.022076 -0.340412 0.194212
v 0.047212 -0.370721 0.197994
v -0.044546 -0.483707 0.038401
v -0.000261 -0.310730 0.181008
v -0.033176 -0.292773 0.168827
v -0.011008 -0.319890 0.187212
v -0.049961 -0.268490 0.142694
v -0.077476 -0.255805 0.117469
v -0.062280 -0.276316 0.147687
v -0.067332 -0.463576 0.040156
v -0.085359 -0.239716 0.082351
v -0.104079 -0.235137 0.047958
v -0.098796 -0.246632 0.085437
v -0.101066 -0.228787 0.009165
v -0.108936 -0.233915 -0.029124
v -0.114999 -0.235358 0.009938
v -0.084797 -0.449001 0.019908
v -0.094689 -0.237368 -0.065722
v -0.091307 -0.252325 -0.102042
v -0.108421 -0.244210 -0.067314
v -0.067200 -0.264152 -0.130909
v -0.053875 -0.287564 -0.159694
v -0.080063 -0.271840 -0.134561
v -0.086712 -0.448520 -0.010483
v -0.022784 -0.305062 -0.176471
v -0.034244 -0.314043 -0.181563
v -0.071954 -0.462413 -0.033214
v -0.060752 -0.472430 -0.037113
v -0.082106 -0.500157 0.003667
v -0.038968 -0.491213 -0.027105
v -0.028479 -0.499362 0.000301
v -0.035430 -0.492103 0.029050
v -0.055748 -0.473690 0.042301
v -0.077532 -0.454907 0.032293
v -0.088021 -0.446758 0.004887
v -0.081070 -0.454017 -0.023862
v 0.177253 -0.442728 0.019171
v 0.176569 -0.427867 -0.011485
v 0.173371 -0.441751 -0.042439
v 0.152108 -0.425231 -0.097998
v 0.137919 -0.397840 -0.112472
v 0.116700 -0.395684 -0.139047
v 0.072538 -0.357607 -0.159337
v 0.057648 -0.328629 -0.149353
v 0.026345 -0.316797 -0.155780
v -0.014846 -0.279468 -0.128916
v -0.017223 -0.260777 -0.100524
v -0.044764 -0.251302 -0.082836
v -0.058854 -0.236587 -0.024553
v -0.042835 -0.234031 0.005413
v -0.054973 -0.237564 0.037056
v -0.033709 -0.254084 0.092615
v -0.004185 -0.264058 0.106400
v 0.001699 -0.283631 0.133665
v 0.045861 -0.321708 0.153955
v 0.076086 -0.333269 0.143281
v 0.092053 -0.362518 0.150398
v 0.133244 -0.399847 0.123534
v 0.150957 -0.401121 0.094451
v 0.163162 -0.428013 0.077453
vn 0.5929 0.5554 -0.5831
vn 0.7504 0.4197 -0.5107
vn 0.8766 0.3143 -0.3644
vn 0.9524 0.2554 -0.1663
vn 0.9663 0.2519 0.0534
vn 0.9160 0.3044 0.2612
vn 0.8094 0.4048 0.4255
vn 0.6625 0.5379 0.5213
vn 0.4978 0.6834 0.5340
vn 0.3403 0.8192 0.4616
vn 0.2141 0.9245 0.3153
vn 0.1383 0.9834 0.1172
vn 0.1244 0.9869 -0.1025
vn 0.1747 0.9345 -0.3103
vn 0.2813 0.8340 -0.4746
vn 0.4282 0.7009 -0.5704
vn 0.2046 0.3124 -0.9277
vn 0.2046 0.3125 -0.9276
vn 0.4718 0.0793 -0.8781
vn 0.4718 0.0792 -0.8781
vn 0.4718 0.0792 -0.8782
vn 0.7070 -0.1208 -0.6968
vn 0.7071 -0.1207 -0.6968
vn 0.7069 -0.1211 -0.6969
vn -0.4278 -0.6281 -0.6500
vn -0.4279 -0.6280 -0.6500
vn 0.8745 -0.2573 -0.4112
vn 0.8746 -0.2569 -0.4111
vn -0.2384 -0.7913 -0.5630
vn -0.2385 -0.7913 -0.5630
vn 0.9489 -0.3088 -0.0647
vn 0.9490 -0.3087 -0.0647
vn 0.9490 -0.3086 -0.0647
vn -0.0867 -0.9180 -0.3870
vn -0.0866 -0.9180 -0.3869
vn -0.0866 -0.9180 -0.3870
vn 0.9186 -0.2684 0.2899
vn 0.9188 -0.2681 0.2898
vn 0.0046 -0.9889 -0.1486
vn 0.0046 -0.9889 -0.1487
vn 0.7886 -0.1413 0.5984
vn 0.7887 -0.1413 0.5984
vn 0.7887 -0.1411 0.5983
vn 0.0212 -0.9931 0.1156
vn 0.5784 0.0523 0.8141
vn 0.5784 0.0524 0.8141
vn -0.0392 -0.9299 0.3657
vn -0.0392 -0.9300 0.3656
vn 0.3200 0.2834 0.9041
vn 0.3200 0.2834 0.9040
vn -0.1676 -0.8091 0.5633
vn -0.1675 -0.8092 0.5632
vn -0.1675 -0.8091 0.5632
vn 0.0528 0.5166 0.8546
vn 0.0528 0.5167 0.8545
vn 0.0529 0.5167 0.8545
vn -0.3443 -0.6490 0.6785
vn -0.3442 -0.6490 0.6784
vn -0.1827 0.7164 0.6733
vn -0.1824 0.7166 0.6732
vn -0.1823 0.7167 0.6731
vn -0.5424 -0.4740 0.6937
vn -0.5423 -0.4740 0.6937
vn -0.3503 0.8527 0.3876
vn -0.3500 0.8529 0.3875
vn -0.3501 0.8528 0.3875
vn -0.3500 0.8528 0.3875
vn -0.7316 -0.3108 0.6067
vn -0.7317 -0.3107 0.6067
vn -0.4247 0.9044 0.0411
vn -0.4243 0.9046 0.0411
vn -0.8835 -0.1841 0.4308
vn -0.8836 -0.1840 0.4306
vn -0.3945 0.8638 -0.3135
vn -0.3941 0.8639 -0.3134
vn -0.3941 0.8640 -0.3134
vn -0.9748 -0.1131 0.1924
vn -0.9748 -0.1131 0.1923
vn -0.2639 0.7372 -0.6220
vn -0.2640 0.7372 -0.6220
vn -0.2639 0.7373 -0.6220
vn -0.9914 -0.1089 -0.0721
vn -0.9914 -0.1089 -0.0719
vn -0.0538 0.5435 -0.8377
vn -0.9310 -0.1720 -0.3219
vn -0.6260 -0.4530 -0.6348
vn -0.6260 -0.4529 -0.6348
vn -0.8027 -0.2928 -0.5195
vn -0.8027 -0.2928 -0.5196
vn -0.4275 -0.6277 -0.6506
vn -0.2379 -0.7911 -0.5635
vn -0.0860 -0.9179 -0.3873
vn 0.0053 -0.9889 -0.1488
vn 0.0220 -0.9930 0.1157
vn -0.0385 -0.9299 0.3658
vn -0.1669 -0.8090 0.5636
vn -0.3437 -0.6487 0.6790
vn -0.5420 -0.4736 0.6942
vn -0.7316 -0.3101 0.6071
vn -0.8836 -0.1833 0.4309
vn -0.9749 -0.1124 0.1924
vn -0.9915 -0.1082 -0.0720
vn -0.9310 -0.1713 -0.3222
vn -0.6258 -0.4525 -0.6353
vn -0.8026 -0.2922 -0.5200
vn -0.0110 -0.9893 -0.1454
vn -0.1006 -0.9197 -0.3795
vn -0.2498 -0.7952 -0.5525
vn -0.4360 -0.6347 -0.6381
vn -0.6306 -0.4627 -0.6231
vn -0.8043 -0.3054 -0.5098
vn -0.9303 -0.1866 -0.3156
vn -0.9897 -0.1246 -0.0700
vn -0.9734 -0.1287 0.1897
vn -0.8838 -0.1984 0.4238
vn -0.7345 -0.3229 0.5968
vn -0.5484 -0.4834 0.6823
vn -0.3537 -0.6554 0.6674
vn -0.1801 -0.8127 0.5541
vn -0.0540 -0.9314 0.3599
vn 0.0054 -0.9934 0.1143
vn 0.9795 0.1918 0.0614
vn 0.9744 0.2100 0.0800
vn 0.9571 0.2144 -0.1950
vn 0.9644 0.1956 -0.1778
vn 0.8819 0.2597 -0.3935
vn 0.8904 0.2662 -0.3692
vn 0.7323 0.3981 -0.5525
vn 0.7444 0.3744 -0.5528
vn 0.7444 0.3745 -0.5529
vn 0.5730 0.5223 -0.6316
vn 0.5729 0.5223 -0.6316
vn 0.5939 0.5174 -0.6161
vn 0.3877 0.6996 -0.6002
vn 0.3936 0.6807 -0.6178
vn 0.2337 0.8256 -0.5135
vn 0.2337 0.8257 -0.5135
vn 0.2585 0.8167 -0.5160
vn 0.1250 0.9424 -0.3102
vn 0.1175 0.9350 -0.3346
vn 0.0628 0.9921 -0.1083
vn 0.0808 0.9885 -0.1275
vn 0.0981 0.9842 0.1475
vn 0.0779 0.9883 0.1309
vn 0.1605 0.9242 0.3466
vn 0.1648 0.9324 0.3217
vn 0.3229 0.8005 0.5050
vn 0.2979 0.8095 0.5059
vn 0.2979 0.8095 0.5060
vn 0.4694 0.6616 0.5847
vn 0.4694 0.6617 0.5847
vn 0.4613 0.6811 0.5686
vn 0.6675 0.4989 0.5527
vn 0.6487 0.5032 0.5709
vn 0.8086 0.3583 0.4666
vn 0.8087 0.3583 0.4666
vn 0.7967 0.3819 0.4685
vn 0.9302 0.2561 0.2628
vn 0.9248 0.2489 0.2877
vn 0.4038 0.7486 0.5259
vn 0.7375 0.4538 0.5002
vn 0.9536 0.2504 0.1673
vn 0.9536 0.2503 0.1673
vn 0.9255 0.2574 -0.2777
vn 0.6698 0.4708 -0.5742
vn 0.3361 0.7656 -0.5485
vn 0.3361 0.7657 -0.5484
vn 0.1200 0.9691 -0.2157
vn 0.1200 0.9691 -0.2156
vn 0.1481 0.9620 0.2294
vn 0.1480 0.9620 0.2294
vn 0.6605 0.7502 -0.0297
vt 0.382152 0.831975
vt 0.419130 0.822744
vt 0.405544 0.847177
vt 0.449753 0.800524
vt 0.448105 0.829764
vt 0.469382 0.767841
vt 0.477033 0.794743
vt 0.475326 0.730482
vt 0.494826 0.752353
vt 0.466055 0.693587
vt 0.490500 0.707121
vt 0.443878 0.662856
vt 0.473095 0.664589
vt 0.411200 0.643459
vt 0.438046 0.635667
vt 0.373804 0.637273
vt 0.395680 0.617921
vt 0.336961 0.646796
vt 0.350447 0.622241
vt 0.306172 0.668746
vt 0.307956 0.639644
vt 0.286806 0.701633
vt 0.279016 0.674668
vt 0.280618 0.738824
vt 0.261267 0.717017
vt 0.290088 0.775866
vt 0.265555 0.762241
vt 0.312104 0.806435
vt 0.282946 0.804757
vt 0.344885 0.826035
vt 0.317949 0.833699
vt 0.360334 0.851478
vt 0.344393 0.973321
vt 0.389492 0.961064
vt 0.424677 0.980582
vt 0.385827 0.991411
vt 0.437983 0.968053
vt 0.475467 0.939915
vt 0.515343 0.945389
vt 0.483066 0.969588
vt 0.523020 0.927172
vt 0.546236 0.886610
vt 0.584909 0.875511
vt 0.565112 0.910649
vt 0.442445 0.280315
vt 0.722624 0.204748
vt 0.732693 0.234189
vt 0.724599 0.265627
vt 0.585472 0.857240
vt 0.592063 0.810840
vt 0.624109 0.786488
vt 0.618428 0.826427
vt 0.729788 0.295365
vt 0.717390 0.324256
vt 0.616672 0.768183
vt 0.604389 0.723098
vt 0.623852 0.687885
vt 0.634734 0.726719
vt 0.436450 0.305185
vt 0.719637 0.354287
vt 0.704459 0.380722
vt 0.611350 0.674577
vt 0.583188 0.637124
vt 0.588595 0.597241
vt 0.612843 0.629480
vt 0.701185 0.410036
vt 0.681680 0.433191
vt 0.570414 0.589568
vt 0.529846 0.566396
vt 0.518689 0.527740
vt 0.553853 0.547487
vt 0.422035 0.327472
vt 0.676403 0.462796
vt 0.655464 0.483770
vt 0.500466 0.527179
vt 0.454079 0.520626
vt 0.429693 0.488606
vt 0.469635 0.494247
vt 0.644591 0.511821
vt 0.619652 0.528848
vt 0.411442 0.496036
vt 0.366384 0.508338
vt 0.331161 0.488889
vt 0.369989 0.477992
vt 0.402167 0.345698
vt 0.610153 0.560170
vt 0.587886 0.578986
vt 0.317900 0.501373
vt 0.280472 0.529531
vt 0.240587 0.524121
vt 0.272826 0.499875
vt 0.188868 0.554717
vt 0.166711 0.534314
vt 0.159706 0.502335
vt 0.232948 0.542269
vt 0.209779 0.582819
vt 0.171114 0.593952
vt 0.190881 0.558801
vt 0.384307 0.325707
vt 0.137082 0.481703
vt 0.130535 0.451632
vt 0.170568 0.612153
vt 0.163996 0.658526
vt 0.131950 0.682883
vt 0.137627 0.642946
vt 0.111974 0.427949
vt 0.110760 0.397524
vt 0.139385 0.701124
vt 0.151656 0.746191
vt 0.132162 0.781390
vt 0.121310 0.742549
vt 0.372420 0.302006
vt 0.094608 0.371657
vt 0.096204 0.341705
vt 0.144658 0.794658
vt 0.172790 0.832118
vt 0.167325 0.871997
vt 0.143120 0.839726
vt 0.084848 0.313492
vt 0.091938 0.284090
vt 0.185505 0.879650
vt 0.226052 0.902864
vt 0.237135 0.941543
vt 0.202006 0.921733
vt 0.368651 0.276432
vt 0.084533 0.254041
vt 0.095405 0.225684
vt 0.255382 0.942091
vt 0.301775 0.948703
vt 0.326096 0.980775
vt 0.286163 0.975056
vt 0.093360 0.194575
vt 0.109494 0.168264
vt 0.374886 0.252173
vt 0.131640 0.112413
vt 0.139554 0.080913
vt 0.163612 0.060211
vt 0.112006 0.136503
vt 0.441261 0.268122
vt 0.409568 0.277985
vt 0.440616 0.292889
vt 0.430186 0.316782
vt 0.412905 0.337360
vt 0.392369 0.336346
vt 0.377462 0.314141
vt 0.369617 0.289187
vt 0.370743 0.263914
vt 0.381539 0.241902
vt 0.542452 0.692619
vt 0.523807 0.727169
vt 0.545970 0.759755
vt 0.524015 0.821240
vt 0.486395 0.832465
vt 0.479026 0.871182
vt 0.420037 0.899135
vt 0.385508 0.880478
vt 0.352907 0.902631
vt 0.291439 0.880680
vt 0.280224 0.843077
vt 0.241514 0.835682
vt 0.213582 0.776711
vt 0.232241 0.742198
vt 0.210092 0.709607
vt 0.232023 0.648164
vt 0.269620 0.636944
vt 0.276985 0.598238
vt 0.335935 0.570280
vt 0.370469 0.588920
vt 0.403040 0.566750
vt 0.464515 0.588664
vt 0.475767 0.626269
vt 0.514479 0.633629
usemtl DiamondOutside
f 17/14/6 18/15/6 19/16/6
f 18/15/7 20/17/7 21/18/7
f 20/17/8 22/19/8 23/20/8
f 22/19/9 24/21/9 25/22/9
f 24/21/10 26/23/10 27/24/10
f 26/23/11 28/25/11 29/26/11
f 28/25/12 30/27/12 31/28/12
f 30/27/13 32/29/13 33/30/13
f 32/29/14 34/31/14 35/32/14
f 34/31/15 36/33/15 37/34/15
f 36/33/16 38/35/16 39/36/16
f 38/35/17 40/37/17 41/38/17
f 40/37/18 42/39/18 43/40/18
f 42/39/19 44/41/19 45/42/19
f 44/41/20 46/43/20 47/44/20
f 46/43/21 17/14/21 48/45/21
f 49/46/22 50/47/23 51/48/22
f 51/48/22 52/49/23 49/46/22
f 51/50/24 53/51/25 54/52/24
f 54/52/24 55/53/26 51/50/24
f 54/54/27 56/55/28 57/56/29
f 57/56/29 58/57/28 54/54/27
f 59/58/30 52/59/31 51/60/31
f 51/60/31 55/61/31 59/58/30
f 57/62/32 60/63/33 61/64/32
f 61/64/32 62/65/33 57/62/32
f 59/58/34 55/61/35 54/66/35
f 54/66/35 58/67/35 59/58/34
f 61/68/36 63/69/37 64/70/38
f 64/70/38 65/71/37 61/68/36
f 66/72/39 58/67/40 57/73/40
f 57/73/40 62/74/41 66/72/39
f 64/75/42 67/76/43 68/77/42
f 68/77/42 69/78/43 64/75/42
f 66/72/44 62/74/44 61/79/45
f 61/79/45 65/80/45 66/72/44
f 68/81/46 70/82/47 71/83/48
f 71/83/48 72/84/47 68/81/46
f 73/85/49 65/80/49 64/86/49
f 64/86/49 69/87/49 73/85/49
f 71/88/50 74/89/51 75/90/50
f 75/90/50 76/91/51 71/88/50
f 73/85/52 69/87/53 68/92/53
f 68/92/53 72/93/53 73/85/52
f 75/94/54 77/95/55 78/96/54
f 78/96/54 79/97/55 75/94/54
f 80/98/56 72/93/57 71/99/58
f 71/99/58 76/100/57 80/98/56
f 78/101/59 81/102/60 82/103/59
f 82/103/59 83/104/61 78/101/59
f 80/98/62 76/105/63 75/106/63
f 75/106/63 79/107/63 80/98/62
f 82/108/64 84/109/65 85/110/66
f 85/110/66 86/111/65 82/108/64
f 87/112/67 79/107/68 78/113/68
f 78/113/68 83/114/68 87/112/67
f 85/115/69 88/116/70 89/117/71
f 89/117/71 90/118/72 85/115/69
f 87/112/73 83/114/74 82/119/74
f 82/119/74 86/120/74 87/112/73
f 89/121/75 91/122/76 92/123/75
f 92/123/75 93/124/76 89/121/75
f 94/125/77 86/120/78 85/126/78
f 85/126/78 90/127/78 94/125/77
f 92/128/79 95/129/80 96/130/79
f 96/130/79 97/131/81 92/128/79
f 94/125/82 90/127/83 89/132/83
f 89/132/83 93/133/83 94/125/82
f 96/134/84 98/135/85 99/136/86
f 99/136/86 100/137/85 96/134/84
f 101/138/87 93/133/88 92/139/88
f 92/139/88 97/140/88 101/138/87
f 99/141/89 102/142/89 49/143/89
f 49/143/89 103/144/89 99/141/89
f 101/138/90 97/140/90 96/145/90
f 96/145/90 100/146/90 101/138/90
f 104/147/91 103/148/92 49/149/92
f 49/149/92 52/150/92 104/147/91
f 104/147/93 100/146/94 99/151/94
f 99/151/94 103/148/94 104/147/93
f 105/152/95 59/58/95 106/153/95
f 59/58/96 107/154/96 106/153/96
f 107/154/97 66/72/97 106/153/97
f 66/72/98 108/155/98 106/153/98
f 108/155/99 73/85/99 106/153/99
f 73/85/100 109/156/100 106/153/100
f 109/156/101 80/98/101 106/153/101
f 80/98/102 110/157/102 106/153/102
f 110/157/103 87/112/103 106/153/103
f 87/112/104 111/158/104 106/153/104
f 111/158/105 94/125/105 106/153/105
f 94/125/106 112/159/106 106/153/106
f 112/159/107 101/138/107 106/153/107
f 101/138/108 113/160/108 106/153/108
f 104/147/109 105/161/109 106/153/109
f 113/160/110 104/147/110 106/153/110
f 66/72/111 65/80/111 108/155/111
f 58/67/112 66/72/112 107/154/112
f 59/58/113 58/67/113 107/154/113
f 52/59/114 59/58/114 105/152/114
f 104/147/115 52/150/115 105/161/115
f 100/146/116 104/147/116 113/160/116
f 101/138/117 100/146/117 113/160/117
f 93/133/118 101/138/118 112/159/118
f 94/125/119 93/133/119 112/159/119
f 86/120/120 94/125/120 111/158/120
f 87/112/121 86/120/121 111/158/121
f 79/107/122 87/112/122 110/157/122
f 80/98/123 79/107/123 110/157/123
f 72/93/124 80/98/124 109/156/124
f 73/85/125 72/93/125 109/156/125
f 65/80/126 73/85/126 108/155/126
f 64/75/127 63/69/127 114/162/127
f 114/162/127 67/76/127 64/75/127
f 115/163/128 114/162/128 63/69/128
f 116/164/129 115/163/129 63/69/129
f 61/68/130 60/63/130 116/164/130
f 116/164/130 63/69/130 61/68/130
f 57/62/131 56/55/131 117/165/131
f 117/165/131 60/63/131 57/62/131
f 118/166/132 117/165/132 56/55/132
f 119/167/133 118/166/133 56/55/133
f 54/54/134 53/51/134 119/167/134
f 119/167/134 56/55/135 54/54/134
f 51/50/136 50/47/136 120/168/136
f 120/168/136 53/51/137 51/50/136
f 121/169/138 120/168/138 50/47/138
f 122/170/139 121/169/139 50/47/139
f 49/46/140 102/142/140 122/170/140
f 122/170/140 50/47/140 49/46/140
f 99/141/141 98/135/141 123/171/141
f 123/171/141 102/142/142 99/141/141
f 124/172/143 123/171/143 98/135/143
f 125/173/144 124/172/144 98/135/144
f 96/134/145 95/129/145 125/173/145
f 125/173/145 98/135/145 96/134/145
f 92/128/146 91/122/146 126/174/146
f 126/174/146 95/129/146 92/128/146
f 127/175/147 126/174/147 91/122/147
f 128/176/148 127/175/148 91/122/148
f 89/121/149 88/116/149 128/176/149
f 128/176/149 91/122/149 89/121/149
f 85/115/150 84/109/150 129/177/150
f 129/177/150 88/116/150 85/115/150
f 130/178/151 129/177/151 84/109/151
f 131/179/152 130/178/152 84/109/152
f 82/108/153 81/102/153 131/179/153
f 131/179/153 84/109/154 82/108/153
f 78/101/155 77/95/156 132/180/155
f 132/180/155 81/102/155 78/101/155
f 133/181/157 132/180/157 77/95/157
f 134/182/158 133/181/158 77/95/158
f 75/94/159 74/89/159 134/182/159
f 134/182/159 77/95/159 75/94/159
f 71/88/160 70/82/160 135/183/160
f 135/183/160 74/89/161 71/88/160
f 136/184/162 135/183/162 70/82/162
f 137/185/163 136/184/163 70/82/163
f 68/81/164 67/76/164 137/185/164
f 137/185/164 70/82/164 68/81/164
f 28/25/12 31/28/12 136/184/12
f 136/184/11 29/26/11 28/25/11
f 24/21/10 27/24/10 115/163/10
f 115/163/9 25/22/9 24/21/9
f 20/17/8 23/20/8 118/166/8
f 118/166/7 21/18/7 20/17/7
f 17/14/6 19/16/6 121/169/6
f 121/169/21 48/45/21 17/14/21
f 44/41/20 47/44/20 124/172/20
f 124/172/19 45/42/19 44/41/19
f 40/37/18 43/40/18 127/175/18
f 127/175/17 41/38/17 40/37/17
f 36/33/16 39/36/16 130/178/16
f 130/178/15 37/34/15 36/33/15
f 32/29/14 35/32/14 133/181/14
f 133/181/13 33/30/13 32/29/13
f 35/32/165 34/31/165 37/34/165
f 35/32/165 37/34/165 130/178/165
f 35/32/165 130/178/165 131/179/165
f 35/32/165 131/179/165 81/102/165
f 35/32/165 81/102/165 132/180/165
f 35/32/165 132/180/165 133/181/165
f 31/28/166 30/27/166 33/30/166
f 31/28/166 33/30/166 133/181/166
f 31/28/166 133/181/166 134/182/166
f 31/28/166 134/182/166 74/89/166
f 31/28/166 74/89/166 135/183/166
f 31/28/166 135/183/166 136/184/166
f 27/24/167 26/23/167 29/26/167
f 27/24/167 29/26/167 136/184/167
f 27/24/167 136/184/167 137/185/168
f 27/24/167 137/185/168 67/76/168
f 27/24/167 67/76/168 114/162/167
f 27/24/167 114/162/167 115/163/167
f 118/166/169 23/20/169 22/19/169
f 118/166/169 22/19/169 25/22/169
f 118/166/169 25/22/169 115/163/169
f 118/166/169 115/163/169 116/164/169
f 116/164/169 60/63/169 117/165/169
f 116/164/169 117/165/169 118/166/169
f 19/16/170 18/15/170 21/18/170
f 19/16/170 21/18/170 118/166/170
f 19/16/170 118/166/170 119/167/170
f 19/16/170 119/167/170 53/51/170
f 19/16/170 53/51/170 120/168/170
f 19/16/170 120/168/170 121/169/170
f 124/172/171 47/44/172 46/43/171
f 124/172/171 46/43/171 48/45/171
f 124/172/171 48/45/171 121/169/171
f 124/172/171 121/169/171 122/170/171
f 122/170/171 102/142/171 123/171/171
f 122/170/171 123/171/171 124/172/171
f 43/40/173 42/39/174 45/42/174
f 43/40/173 45/42/174 124/172/174
f 43/40/173 124/172/174 125/173/174
f 43/40/173 125/173/174 95/129/174
f 43/40/173 95/129/174 126/174/174
f 43/40/173 126/174/174 127/175/174
f 39/36/175 38/35/175 41/38/175
f 39/36/175 41/38/175 127/175/175
f 39/36/175 127/175/175 128/176/175
f 39/36/175 128/176/175 88/116/176
f 39/36/175 88/116/176 129/177/175
f 39/36/175 129/177/175 130/178/175
f 20/17/177 18/15/177 17/14/177
f 20/17/177 17/14/177 46/43/177
f 20/17/177 46/43/177 44/41/177
f 20/17/177 44/41/177 42/39/177
f 20/17/177 42/39/177 40/37/177
f 20/17/177 40/37/177 38/35/177
f 20/17/177 38/35/177 36/33/177
f 20/17/177 36/33/177 34/31/177
f 20/17/177 34/31/177 32/29/177
f 20/17/177 32/29/177 30/27/177
f 20/17/177 30/27/177 28/25/177
f 20/17/177 28/25/177 26/23/177
f 20/17/177 26/23/177 24/21/177
f 24/21/177 22/19/177 20/17/177
